<?xml version="1.0" standalone="no"?>
<!DOCTYPE svg PUBLIC "-//W3C//DTD SVG 20010904//EN"
 "http://www.w3.org/TR/2001/REC-SVG-20010904/DTD/svg10.dtd">
<svg version="1.0" xmlns="http://www.w3.org/2000/svg"
 width="100.000000pt" height="100.000000pt" viewBox="0 0 100.000000 100.000000"
 preserveAspectRatio="xMidYMid meet">
<metadata>
Created by potrace 1.14, written by Peter Selinger 2001-2017
</metadata>
<g transform="translate(0.000000,100.000000) scale(0.100000,-0.100000)"
fill="#000000" stroke="none">
<path d="M105 930 c-4 -7 54 -103 129 -216 75 -112 136 -208 136 -214 0 -5
-61 -101 -135 -212 -75 -111 -134 -207 -132 -212 2 -7 44 -12 103 -13 l99 -3
95 140 c52 76 97 139 100 139 3 0 48 -62 100 -137 l96 -137 93 -3 c55 -2 98 1
104 7 7 7 -34 77 -126 216 -75 113 -137 209 -137 215 0 5 59 98 131 207 73
109 132 204 133 213 1 12 -16 15 -99 15 l-100 0 -95 -137 c-52 -76 -97 -137
-100 -137 -3 0 -48 61 -100 137 l-95 137 -97 3 c-63 2 -99 -1 -103 -8z m280
-180 c56 -80 108 -145 116 -145 7 0 56 62 109 137 53 76 101 143 106 148 6 6
37 10 68 8 l56 -3 -130 -194 c-72 -107 -128 -201 -125 -209 2 -7 58 -93 123
-190 65 -97 122 -183 126 -189 5 -10 -8 -13 -53 -13 l-60 0 -65 93 c-122 174
-148 208 -160 204 -6 -2 -54 -65 -106 -140 -52 -75 -100 -141 -106 -147 -6 -6
-36 -10 -68 -8 l-56 3 130 195 c72 107 128 200 125 207 -2 7 -57 92 -123 190
-65 98 -122 184 -126 191 -6 10 5 12 55 10 l62 -3 102 -145z"/>
</g>
</svg>
